inDegrees=no
num_controls=7
num_derivatives=13
num_iterations=112
num_multipliers=7
num_parameters=0
num_slacks=7
num_states=26
objective=0.445725
objective_accelerations=0.057484
objective_balance=0.003541
objective_effort=0.022952
objective_height=0.356206
objective_ligament=0.005542
solver_duration=1553.674088
status=Solve_Succeeded
success=true
DataType=double
version=3
OpenSimVersion=4.5
endheader
time	/jointset/ground_pelvis/pelvis_tilt/value	/jointset/ground_pelvis/pelvis_tx/value	/jointset/ground_pelvis/pelvis_ty/value	/jointset/hip_l/hip_flexion_l/value	/jointset/hip_l/hip_adduction_l/value	/jointset/hip_l/hip_rotation_l/value	/jointset/back/lumbar_extension/value	/jointset/patellofemoral_l/patellar_flexion_l/value	/jointset/knee_l/knee_flexion_l/value	/jointset/knee_l/knee_adduction_l/value	/jointset/knee_l/knee_rotation_l/value	/jointset/ankle_l/ankle_angle_l/value	/jointset/subtalar_l/subtalar_angle_l/value	/jointset/ground_pelvis/pelvis_tilt/speed	/jointset/ground_pelvis/pelvis_tx/speed	/jointset/ground_pelvis/pelvis_ty/speed	/jointset/hip_l/hip_flexion_l/speed	/jointset/hip_l/hip_adduction_l/speed	/jointset/hip_l/hip_rotation_l/speed	/jointset/back/lumbar_extension/speed	/jointset/patellofemoral_l/patellar_flexion_l/speed	/jointset/knee_l/knee_flexion_l/speed	/jointset/knee_l/knee_adduction_l/speed	/jointset/knee_l/knee_rotation_l/speed	/jointset/ankle_l/ankle_angle_l/speed	/jointset/subtalar_l/subtalar_angle_l/speed	/forceset/tau_hip_flexion_l	/forceset/tau_hip_adduction_l	/forceset/tau_hip_rotation_l	/forceset/tau_knee_flexion_l	/forceset/tau_ankle_angle_l	/forceset/tau_subtalar_angle_l	/forceset/tau_lumbar_extension	lambda_cid13_p0	lambda_cid13_p1	lambda_cid13_p2	lambda_cid13_p3	lambda_cid13_p4	lambda_cid13_p5	lambda_cid14_p0	/jointset/ground_pelvis/pelvis_tilt/accel	/jointset/ground_pelvis/pelvis_tx/accel	/jointset/ground_pelvis/pelvis_ty/accel	/jointset/hip_l/hip_flexion_l/accel	/jointset/hip_l/hip_adduction_l/accel	/jointset/hip_l/hip_rotation_l/accel	/jointset/back/lumbar_extension/accel	/jointset/patellofemoral_l/patellar_flexion_l/accel	/jointset/knee_l/knee_flexion_l/accel	/jointset/knee_l/knee_adduction_l/accel	/jointset/knee_l/knee_rotation_l/accel	/jointset/ankle_l/ankle_angle_l/accel	/jointset/subtalar_l/subtalar_angle_l/accel	gamma_cid13_p0	gamma_cid13_p1	gamma_cid13_p2	gamma_cid13_p3	gamma_cid13_p4	gamma_cid13_p5	gamma_cid14_p0
0.5	-0.3433878653331746	-0.04063826950907439	0.7597772780957435	1.10419257079534	-0.4355368816713709	-0.2237407889529557	-0.2535404576201086	0.8039942353102109	0.8039942353102096	-0.1263940209299085	-0.1580500483503993	0.1031123392822898	-0.03362325455835421	-0.7739501721015006	-0.2155266313842977	-0.5301787830151335	2.475060017195068	-0.2030916625336047	0.7249937703635606	-0.1218424527240138	1.981237494330836	1.981237494330836	0.1443301544444098	-0.09613064521873038	0.4508972814263622	-0.001688483547087207	-0.1704667133701176	0.01863852381971565	-0.01129325027698587	-0.2194351783935194	0.07209200852217865	0.04476402057620426	0.1683436281458399	-9.630148573637415	-20.8367684372603	6.506331407797186	-7.869888279580544	-522.7465674575899	-63.2047182839187	-25.27320890438761	0.8406084346747212	0.6456971826902093	-0.4500749982704768	-1.423486298255759	0.7541818192216805	-0.1606311091107809	1.095190210465194	-1.210381476122657	-1.210381476122661	0.1696991753639953	0.282268117135039	-0.3962707918231582	0.6193438424317581	-5.454362026437162e-07	-2.621343321499e-07	2.901415066384218e-06	1.971472983157806e-07	-6.518705234526467e-07	3.468552444672988e-08	-4.322273682813926e-07
0.51	-0.3510836847791611	-0.04276104452629351	0.7544541577463399	1.12886713493435	-0.4375315955706923	-0.2164960569770172	-0.2547053501375654	0.8237425717695381	0.8237425717695355	-0.1249486006315507	-0.1589957799823085	0.1075999347910771	-0.03361171843131855	-0.7651199914688861	-0.2090149874963024	-0.5343302680721281	2.459506074687035	-0.1958744540219456	0.7239702530050272	-0.1111850854533018	1.968127415439512	1.968127415439511	0.1445612861478112	-0.0929622891214906	0.4465132558466031	0.003918111517863561	-0.1757407292911384	0.01912273975763393	-0.01138307867168578	-0.2223868402525472	0.07176530121412254	0.0451667090985843	0.1723514827258986	-9.937750859599607	-20.94130603720267	6.504159972332197	-7.763038744048921	-526.3514034068337	-62.93335435153959	-24.36317770048559	0.918207740167475	0.6559520913998179	-0.3805621459464059	-1.673445714690893	0.7016129484582118	-0.07095462685633805	1.04365478248087	-1.406592753448042	-1.406592753448192	-0.07897351064919243	0.3427262312023228	-0.4757315969048453	0.5193468519343536	-5.384889141778303e-07	-1.879682976943994e-07	2.988106949000386e-06	2.176327825702082e-07	-6.293869822746071e-07	1.161612410959144e-07	-4.342509353798586e-07
0.52	-0.3586884054462989	-0.04481829228472356	0.7490929471690598	1.153375740150757	-0.439454912868633	-0.2092611086901907	-0.2557651400228937	0.84335075310839	0.843350753108386	-0.1235066277518543	-0.1599081066782087	0.1120404374128961	-0.03354651045095186	-0.7557304163317403	-0.2024211796264807	-0.537796828590419	2.441868232674452	-0.1888123422574791	0.7230370325412229	-0.1008219262983231	1.953206470235756	1.953206470235754	0.1436406707121162	-0.0894496580168956	0.4414787040327427	0.00904588711911905	-0.1810147452121592	0.01960695569555223	-0.01147290706638579	-0.2253385021115762	0.07143859390606645	0.04556939762096435	0.1763593373059573	-10.24835016305913	-21.04581532317929	6.502552679140932	-7.695413277921094	-530.035388993069	-62.72229039012936	-23.45373746391695	0.9524873355810021	0.6621299790556051	-0.3130900905295358	-1.840266199165597	0.7231624697831699	-0.1425717301652295	1.036348587318535	-1.572554738609198	-1.572554738609197	-0.06065025245527603	0.3511231186061127	-0.526376038643278	0.5235799496927007	-5.298094279664279e-07	-2.903397430425492e-07	2.917831424699722e-06	1.884529829372434e-07	-5.907148071336703e-07	1.854076622426104e-07	-4.463100691422242e-07
0.53	-0.3661964084806565	-0.04680915178079818	0.7437004386481995	1.177698240691837	-0.4413078568845669	-0.2020389711941535	-0.2567222899211967	0.8628020060945518	0.8628020060945508	-0.1220754156863204	-0.1607864127295467	0.1164282044363812	-0.03343129632886999	-0.7457627025837602	-0.1957326451174599	-0.5405946846045375	2.422331512214284	-0.1817473394666006	0.721034518126952	-0.09062096638141592	1.936856819859307	1.936856819859287	0.1428340683706918	-0.08638373481282891	0.4360478389072558	0.01403043802586084	-0.1867590704156538	0.02032893009727639	-0.01150088894089438	-0.2275594393100043	0.07044666846699667	0.04587897977334707	0.180734326412798	-10.76146210239978	-21.06938204726524	6.482272830548951	-7.572626542013382	-533.6232336290191	-62.33457633091516	-22.54642225870587	1.034971476418503	0.6749609827164192	-0.2467187907130391	-2.055505879713704	0.7022047462586262	-0.2828815316557328	1.010032741002993	-1.694175728929646	-1.694175728929821	-0.05577695666072546	0.2590828893253588	-0.555456900608485	0.4906362059299915	-5.132797371310049e-07	-2.473569087670314e-07	2.896668633283767e-06	1.978808775318645e-07	-5.653950602667089e-07	2.513061158273926e-07	-4.386120222918691e-07
0.54	-0.3736015227611321	-0.04873257677260431	0.7382832344804258	1.20181634784626	-0.4430893437600884	-0.1948476168891784	-0.2575778176109053	0.8820841614685963	0.8820841614685981	-0.1206452919905357	-0.1616391083552404	0.1207608597783903	-0.03326528798876768	-0.7351526655553006	-0.1889342787727855	-0.5427359579730621	2.400989555343263	-0.1745209141749848	0.7168803943287715	-0.08049748457946125	1.919386947812249	1.919386947812245	0.1434229967622793	-0.08432757288802556	0.4304563677375452	0.0192047307232056	-0.1925033956191484	0.02105090449900053	-0.01152887081540286	-0.2297803765084323	0.0694547430279269	0.04618856192572977	0.1851093155196387	-11.27812138821489	-21.09276914644308	6.462471232884874	-7.484746305044671	-537.2964009684367	-62.00798464784344	-21.64362602711901	1.080951991676911	0.6840963461863115	-0.1817735614107373	-2.201313481336183	0.7554469699305988	-0.5728936069471795	1.020852964328037	-1.796599072724274	-1.796599072724276	0.2184558941471215	0.1491708627534437	-0.5584972474820487	0.5615283078132947	-4.880647135200695e-07	-4.355657363128377e-08	2.929843333570044e-06	2.500236678676451e-07	-5.548482127666991e-07	3.135004350883554e-07	-4.090549671040358e-07
0.55	-0.3808968786888725	-0.05058770009793507	0.7328480819356271	1.225711385074131	-0.444797589033044	-0.1877047963739039	-0.2583341102941687	0.9011851411917154	0.9011851411917167	-0.1192046331352396	-0.1624729993167143	0.1250363617041508	-0.0330466759513123	-0.7237526429758653	-0.1820936263213315	-0.5441652014706471	2.377631464380493	-0.1670976443893667	0.7116497064784592	-0.07094796428946293	1.900539512693632	1.900539512693629	0.1446975560393173	-0.08235614024886137	0.4245726907467648	0.02452496178762503	-0.1975543867597083	0.02142245345631716	-0.01148476383178056	-0.2326509773509439	0.06887958692213567	0.04624738595148372	0.1888002701797918	-11.67586877292377	-21.02007323103254	6.418212074658369	-7.18334628065318	-540.940433374258	-61.63643422851419	-20.75019017307188	1.194339889458961	0.6836193834680147	-0.1042071356083126	-2.461101638276812	0.7399477024054396	-0.5035995301206067	0.8939647288989214	-1.969159762534366	-1.969159762533892	0.08037559293968599	0.2358894044290061	-0.6139678674894544	0.5180075368005411	-4.65715359507244e-07	7.854750077528937e-08	2.934614055228295e-06	2.808018019681214e-07	-5.362409928245541e-07	3.778247275568806e-07	-3.899765283103548e-07
0.5600000000000001	-0.3880732718911423	-0.05237450296098266	0.7274024954775176	1.249361232445467	-0.4464307654642379	-0.1806153713683424	-0.2590005151410195	0.9200895777574275	0.9200895777574283	-0.1177515447574816	-0.1632842239638102	0.1292508938714808	-0.03277471419700385	-0.7113601204611472	-0.1752701863161527	-0.5448227406352653	2.35195158403653	-0.1595071458226278	0.7062012923863314	-0.06251991729693739	1.880078316330855	1.880078316330857	0.1459089012546572	-0.07979431001245324	0.4182624160514476	0.02987467409381541	-0.2026053779002664	0.02179400241363378	-0.01144065684815833	-0.2355215781934576	0.06830443081634442	0.04630620997723765	0.1924912248399449	-12.07575053055998	-20.94712202861399	6.374049076420747	-6.922957286257501	-544.6520436672238	-61.32049887781108	-19.86877601072799	1.279451978733458	0.6806538569314701	-0.02743269481696632	-2.665671357576282	0.7888927261547439	-0.6164388553024198	0.7965583048334831	-2.119351321556453	-2.119351321556447	0.2058130818075142	0.2672503822022292	-0.6438167883893828	0.5674245561674813	-4.468048090121501e-07	1.026160623068563e-07	2.905300002532915e-06	2.859423485862333e-07	-5.07961325951847e-07	4.447049878744808e-07	-3.834724291896565e-07
0.5700000000000001	-0.3951222684197833	-0.05409310206425073	0.7219539776556466	1.272744406066334	-0.4479876260557177	-0.173582289778267	-0.259586008108022	0.9387820604588162	0.938782060458817	-0.1162867039266003	-0.1640681223547249	0.1334004596819712	-0.03244945828078524	-0.6984059345849994	-0.1684466172958514	-0.5447717196530658	2.324445505531353	-0.1518846669134556	0.7002957926309537	-0.05455884538560914	1.85821335780445	1.858213357804451	0.1470433870198456	-0.0770143646195267	0.4116031174965054	0.03513824912964836	-0.207898117849585	0.02197577486528714	-0.01131439868533846	-0.2380732752069134	0.06751379293832906	0.04634789109285924	0.1964516146201215	-12.53314122780096	-20.8542864690964	6.324007334565379	-6.701578296724226	-548.2507065111992	-60.9571224408085	-19.00117202093988	1.308325636451816	0.6837187508497757	0.03763671467615878	-2.828796021697622	0.745580345195705	-0.5958173805101149	0.7988562419784572	-2.250722080877719	-2.250722080877899	0.06497801927328672	0.2795980852375172	-0.6840916769045594	0.4997278358180195	-4.204287688776691e-07	1.612214253889377e-07	2.864048452156031e-06	2.973796916589757e-07	-4.791727507644744e-07	5.048608155570843e-07	-3.680708134759861e-07
